<?xml version="1.0" encoding="UTF-8" standalone="no"?>

<svg
   width="64px"
   height="64px"
   viewBox="0 0 64 64"
   xmlns:xlink="http://www.w3.org/1999/xlink"
   xmlns="http://www.w3.org/2000/svg"
   xmlns:svg="http://www.w3.org/2000/svg">

   <linearGradient
      id="_ÂÁ_Ï_ÌÌ_È_ËÂÌÚ_2-2"
      x1="8.4300003"
      y1="46.75"
      x2="85.080002"
      y2="46.75"
      gradientTransform="matrix(0.66365756,0,0,0.66365756,0.99098698,0.94327028)"
      xlink:href="#_%C3%82%C3%81_%C3%8F_%C3%8C%C3%8C_%C3%88_%C3%8B%C3%82%C3%8C%C3%9A_2" />
   <linearGradient
      id="_ÂÁ_Ï_ÌÌ_È_ËÂÌÚ_2"
      y1="46.75"
      x2="93.510002"
      y2="46.75"
      gradientUnits="userSpaceOnUse">
      <stop
         offset="0"
         stop-color="#be965d"
         id="stop4" />
      <stop
         offset="0.28"
         stop-color="#976f40"
         id="stop6" />
      <stop
         offset="0.43"
         stop-color="#c99b61"
         id="stop8" />
      <stop
         offset="0.56"
         stop-color="#f0be7b"
         id="stop10" />
      <stop
         offset="0.63"
         stop-color="#ffcb85"
         id="stop12" />
      <stop
         offset="0.71"
         stop-color="#eebc79"
         id="stop14" />
      <stop
         offset="0.87"
         stop-color="#c0935b"
         id="stop16" />
      <stop
         offset="1"
         stop-color="#976f40"
         id="stop18" />
   </linearGradient>


   <path
      style="fill:none;stroke:url(#_%C3%82%C3%81_%C3%8F_%C3%8C%C3%8C_%C3%88_%C3%8B%C3%82%C3%8C%C3%9A_2-2);stroke-width:0.663658;stroke-miterlimit:10"
      d="M 56.421217,26.115874 A 25.099529,25.099529 0 0 1 37.874559,56.38127 25.099529,25.099529 0 0 1 7.6091636,37.834612 25.099529,25.099529 0 0 1 26.155822,7.5692163 25.099529,25.099529 0 0 1 56.421217,26.115874 Z M 53.848287,48.563548 39.612832,32.031838 C 36.90511,28.919284 33.122261,31.998655 30.241987,29.377208 28.914672,28.175987 22.351099,18.234397 21.979451,17.703471 a 0.33184537,0.33184537 0 0 1 0.504379,-0.431377 c 0.590656,0.590655 6.517118,6.848946 7.446238,7.851068 0.929121,1.002123 1.387045,1.201221 1.904697,0.663658 0.517654,-0.537563 -0.179187,-1.400317 -0.517653,-1.818422 -0.338465,-0.418104 -7.094499,-8.634184 -7.466147,-9.039015 -0.438014,-0.530927 -0.537563,-0.716751 -0.325192,-0.929121 0.212371,-0.21237 0.404832,-0.119455 0.935757,0.325192 l 9.085472,7.459511 c 0.411468,0.338466 1.327315,1.041942 1.811785,0.52429 0.48447,-0.517654 0.325192,-0.975577 -0.663657,-1.904698 -0.98885,-0.92912 -7.273687,-6.848946 -7.864342,-7.452874 a 0.32716702,0.32716702 0 1 1 0.42474,-0.497743 c 0.530926,0.371648 10.472516,6.928584 11.680373,8.262537 2.594902,2.880273 -0.491106,6.636575 2.65463,9.370844 l 16.478617,14.235455 c 0.451288,0.384921 0.962304,0.809662 1.453411,1.254313 A 30.694162,30.694162 0 0 0 7.8302713,13.091051 q 0.2057337,0.21237 0.4181043,0.438014 c 1.8316954,2.103794 16.6378954,18.967333 17.6134724,20.181826 1.732146,2.163524 3.404562,1.606052 7.399781,2.216616 2.508626,0.391559 4.88452,2.568356 6.503844,5.707456 1.619325,3.1391 2.263073,6.636575 0.663658,8.242627 -1.599415,1.606051 -5.090253,0.942393 -8.242627,-0.663658 -3.152373,-1.606051 -5.309261,-3.981945 -5.707455,-6.503844 -0.610565,-3.981945 -0.05309,-5.660999 -2.223253,-7.393146 C 23.134215,34.381186 8.1421906,21.214219 4.6248056,18.134848 A 30.687526,30.687526 0 0 0 56.078176,51.012444 27.336055,27.336055 0 0 1 53.848287,48.563548 Z"
      id="path590" />

</svg>