<?xml version="1.0" encoding="UTF-8" standalone="no"?>

<svg
    width="32"
    height="32"
    viewBox="0 0 32 32"
    xmlns="http://www.w3.org/2000/svg"
    xmlns:svg="http://www.w3.org/2000/svg">

    <path
        fill='#c6a87d'
        d="M 30.990495,12.295158 H 28.102019 A 11.606105,11.606105 0 0 0 28.345626,10.085299 0.48721281,0.48721281 0 0 0 27.841012,9.5980864 H 4.1937896 A 0.48721281,0.48721281 0 0 0 3.6891763,10.085299 11.606105,11.606105 0 0 0 3.984984,12.295158 H 1.0095058 a 0.48721281,0.48721281 0 0 0 -0.5046133,0.487212 0.50461327,0.50461327 0 0 0 0.5046133,0.504613 h 3.1146819 a 12.18032,12.18032 0 0 0 3.3408879,5.655149 l -4.750325,11.867113 a 0.48721281,0.48721281 0 0 0 0.2784073,0.643816 0.31320824,0.31320824 0 0 0 0.1740047,0 0.50461327,0.50461327 0 0 0 0.4698123,-0.313207 l 1.026627,-2.575268 H 27.284197 l 1.061429,2.610068 a 0.52201373,0.52201373 0 0 0 0.469811,0.313209 0.38281006,0.38281006 0 0 0 0.191406,0 0.50461327,0.50461327 0 0 0 0.278407,-0.643817 L 24.552325,18.942132 a 12.54573,12.54573 0 0 0 3.340889,-5.655149 h 3.097281 a 0.50461327,0.50461327 0 0 0 0.504613,-0.504613 0.48721281,0.48721281 0 0 0 -0.504613,-0.487212 z m -3.688897,-1.740046 a 13.920366,13.920366 0 0 1 -0.208805,1.740046 H 4.9072084 A 13.920366,13.920366 0 0 1 4.6984028,10.555112 Z M 5.0638124,27.607561 5.464023,26.598334 h 21.141556 l 0.38281,0.991826 z M 26.153168,25.623909 H 5.8642335 l 2.3838627,-5.985758 a 12.18032,12.18032 0 0 0 15.5038078,0 z M 16.008701,21.378197 A 11.345098,11.345098 0 0 1 5.1508147,13.286983 H 26.849186 A 11.327698,11.327698 0 0 1 16.008701,21.378197 Z M 20.045607,7.6840361 a 0.50461327,0.50461327 0 0 0 0,0.7134187 0.55681464,0.55681464 0 0 0 0.348009,0.1392037 0.52201373,0.52201373 0 0 0 0.36541,-0.1566041 3.6366956,3.6366956 0 0 0 0.365409,-4.4023158 c -1.061427,-1.6008421 -0.191404,-2.4534645 0,-2.5578673 A 0.49354152,0.49354152 0 1 0 20.480619,0.6716516 2.8362746,2.8362746 0 0 0 20.376215,4.5345533 2.6100686,2.6100686 0 0 1 20.045607,7.6840361 Z m -4.680723,0 a 0.50461327,0.50461327 0 0 0 0,0.7134187 0.48721281,0.48721281 0 0 0 0.696018,0 3.6018947,3.6018947 0 0 0 0.400211,-4.4197162 C 15.382284,2.3246951 16.252308,1.4720727 16.35671,1.3676699 a 0.50461327,0.50461327 0 0 0 0,-0.6960183 0.52201373,0.52201373 0 0 0 -0.713419,0 2.8188741,2.8188741 0 0 0 -0.087,3.8629017 2.6274691,2.6274691 0 0 1 -0.191404,3.1494828 z m -4.663323,0 a 0.50461327,0.50461327 0 0 0 0,0.7134187 0.55681464,0.55681464 0 0 0 0.348009,0.1392037 0.52201373,0.52201373 0 0 0 0.36541,-0.1566041 3.6366956,3.6366956 0 0 0 0.365409,-4.4023158 C 10.718962,2.3246951 11.588985,1.4720727 11.693388,1.3676699 A 0.49354188,0.49354188 0 1 0 11.04957,0.61945022 2.8362746,2.8362746 0 0 0 10.945168,4.4823519 2.6100686,2.6100686 0 0 1 10.701561,7.6840361 Z" />
</svg>