<?xml version="1.0" encoding="UTF-8" standalone="no"?>

<svg
    width="32"
    height="32"
    viewBox="0 0 32 32"
    xmlns="http://www.w3.org/2000/svg"
    xmlns:svg="http://www.w3.org/2000/svg">

    <path
        stroke='#c6a87d' strokeWidth="1.7"
        d="m 24.698194,8.4667424 a 0.52138773,0.52138773 0 0 0 -0.608285,0.382351 0.50400814,0.50400814 0 0 0 0.382351,0.5909061 4.0146855,4.0146855 0 0 1 3.110947,4.0842035 0.50400814,0.50400814 0 0 0 0.469249,0.538768 v 0 a 0.50400814,0.50400814 0 0 0 0.504008,-0.469249 5.0922202,5.0922202 0 0 0 -3.85827,-5.1269796 z M 11.611362,16.739428 a 3.2673631,3.2673631 0 0 0 -3.2673627,3.267363 0.50400815,0.50400815 0 1 0 1.0080163,0 2.2767264,2.2767264 0 0 1 2.2593464,-2.276727 0.48662855,0.48662855 0 0 0 0.504009,-0.486628 0.50400814,0.50400814 0 0 0 -0.504009,-0.504008 z m 0,-2.259347 a 5.5440895,5.5440895 0 1 0 5.54409,5.52671 5.5440895,5.5440895 0 0 0 -5.54409,-5.52671 z m 0,10.080163 a 4.5534528,4.5534528 0 1 1 4.570833,-4.553453 4.5534528,4.5534528 0 0 1 -4.570833,4.553453 z M 31.476235,13.541583 A 8.6897955,8.6897955 0 0 0 23.412105,5.4774527 H 23.238309 A 9.645673,9.645673 0 0 1 17.068554,2.7314774 6.4825874,6.4825874 0 0 0 12.13275,0.99351827 6.5694854,6.5694854 0 0 0 6.0498933,7.3892078 v 0.086898 A 6.3783099,6.3783099 0 0 1 4.0164812,12.168595 10.862244,10.862244 0 0 0 10.968318,31.025452 h 0.469249 a 10.914383,10.914383 0 0 0 10.427754,-7.490604 1.147053,1.147053 0 0 1 1.112294,-0.799461 v 0 a 8.6897955,8.6897955 0 0 0 6.187134,-2.624319 8.6897955,8.6897955 0 0 0 2.311486,-6.569485 z m -3.041428,5.787404 a 7.5601221,7.5601221 0 0 1 -5.596229,2.415763 v 0 a 2.1724489,2.1724489 0 0 0 -2.050791,1.494645 9.9411261,9.9411261 0 0 1 -9.819469,6.79542 A 9.9411261,9.9411261 0 0 1 1.5485793,20.701974 9.8368485,9.8368485 0 0 1 4.746424,12.898538 7.3863262,7.3863262 0 0 0 7.0579096,7.4934853 v 0 A 5.5440895,5.5440895 0 0 1 12.184889,2.0015345 h 0.399731 a 5.4745712,5.4745712 0 0 1 3.80613,1.5294041 10.566791,10.566791 0 0 0 6.743281,2.9371508 h 0.139037 a 7.6296404,7.6296404 0 0 1 7.143012,7.1256326 7.5427425,7.5427425 0 0 1 -1.981273,5.735265 z" />
</svg>