<?xml version="1.0" encoding="UTF-8" standalone="no"?>

<svg
    width="32"
    height="32"
    viewBox="0 0 32 32"
    xmlns="http://www.w3.org/2000/svg"
    xmlns:svg="http://www.w3.org/2000/svg">

    <path
        fill='#c6a87d'
        d="m 19.614079,6.4619531 a 0.74503589,0.74503589 0 0 0 -0.745036,0.7450359 0.745036,0.745036 0 1 0 1.490072,0 0.74503589,0.74503589 0 0 0 -0.745036,-0.7450359 z M 9.2182295,11.053453 A 0.74503589,0.74503589 0 1 0 9.9459389,11.798489 0.74503589,0.74503589 0 0 0 9.2182295,11.053453 Z M 24.361517,9.2688325 a 0.74503589,0.74503589 0 1 0 0.745036,0.7450355 0.74503589,0.74503589 0 0 0 -0.745036,-0.7450355 z m -6.48008,1.5247245 A 0.7623623,0.7623623 0 1 0 18.6438,11.538593 0.7623623,0.7623623 0 0 0 17.881437,10.793557 Z M 12.007782,6.6005644 A 0.74503589,0.74503589 0 1 0 12.770145,7.3456003 0.74503589,0.74503589 0 0 0 12.007782,6.6005644 Z M 30.547048,17.25631 a 2.3390662,2.3390662 0 0 0 0,-0.762362 A 1.7326416,1.7326416 0 0 0 31.5,15.003876 1.6286831,1.6286831 0 0 0 29.871317,13.375193 h -0.779688 v -0.24257 A 8.2820268,8.2820268 0 0 0 20.740296,4.8679228 H 11.228094 A 8.2820268,8.2820268 0 0 0 2.9633933,13.132623 v 0.24257 H 2.2876631 a 1.6286831,1.6286831 0 0 0 -0.7103831,3.153408 2.7029209,2.7029209 0 0 0 0,0.641077 2.2177812,2.2177812 0 0 0 1.2301755,4.054382 H 3.0326989 A 6.4107739,6.4107739 0 0 0 9.40882,27.132367 h 13.237382 a 6.4281003,6.4281003 0 0 0 6.376121,-5.908307 h 0.207917 a 2.2177812,2.2177812 0 0 0 2.217781,-2.217782 2.165802,2.165802 0 0 0 -0.900973,-1.749968 z m -1.64601,1.299481 A 2.3910454,2.3910454 0 0 1 25.9902,18.815688 v 0 a 6.9305664,6.9305664 0 0 0 -6.739976,-0.658404 7.0691777,7.0691777 0 0 1 -6.029592,-0.138611 7.6756023,7.6756023 0 0 0 -5.5271272,0 A 8.663208,8.663208 0 0 1 5.077216,18.538465 2.6336152,2.6336152 0 0 1 2.7901291,17.776103 1.4207661,1.4207661 0 0 1 2.616865,17.360269 v 0 a 1.8539265,1.8539265 0 0 1 0,-0.693057 h 26.838618 a 1.7326416,1.7326416 0 0 1 -0.554445,1.888579 z M 4.0203046,13.132623 A 7.2770947,7.2770947 0 0 1 11.228094,5.8555285 h 9.512202 a 7.2770947,7.2770947 0 0 1 7.259768,7.2770945 v 0.24257 H 4.0203046 Z M 2.2876631,14.362799 H 29.784685 a 0.65840381,0.65840381 0 0 1 0.641078,0.641077 0.64107739,0.64107739 0 0 1 -0.641078,0.641078 H 2.2876631 A 0.64107739,0.64107739 0 0 1 1.6292592,15.003876 0.65840381,0.65840381 0 0 1 2.2876631,14.362799 Z M 22.698181,26.127435 H 9.3741672 A 5.4058418,5.4058418 0 0 1 4.0203046,21.22406 H 27.982738 a 5.4058418,5.4058418 0 0 1 -5.371189,4.903375 z m 6.584038,-5.890981 H 2.7728027 a 1.2128491,1.2128491 0 0 1 -0.9183,-2.027191 v 0.121285 a 3.4652832,3.4652832 0 0 0 3.1187548,1.178196 8.9750835,8.9750835 0 0 0 2.9108379,-0.554445 6.5667117,6.5667117 0 0 1 4.8860496,0 8.1260891,8.1260891 0 0 0 6.757302,0.103959 5.9083079,5.9083079 0 0 1 5.769696,0.554445 v 0 a 2.9454907,2.9454907 0 0 0 1.732642,0.589098 3.6385474,3.6385474 0 0 0 2.356393,-0.900974 3.0667756,3.0667756 0 0 0 0.693056,-0.900973 1.2821548,1.2821548 0 0 1 0.173264,0.606424 1.2301755,1.2301755 0 0 1 -1.056911,1.230176 z" />
</svg>