<?xml version="1.0" encoding="UTF-8" standalone="no"?>

<svg
    width="32"
    height="32"
    viewBox="0 0 32 32"
    xmlns="http://www.w3.org/2000/svg"
    xmlns:svg="http://www.w3.org/2000/svg">

    <path
        fill='#c6a87d'
        d="m 20.323739,22.239709 a 0.48717231,0.48717231 0 0 0 -0.53937,0.452374 l -0.643763,6.15925 a 0.52197033,0.52197033 0 0 0 0.452374,0.556768 v 0 a 0.48717231,0.48717231 0 0 0 0.487173,-0.452374 l 0.643763,-6.15925 A 0.52197033,0.52197033 0 0 0 20.323739,22.239709 Z M 12.2158,22.692083 a 0.52197033,0.52197033 0 0 0 -0.556769,-0.452374 0.50457132,0.50457132 0 0 0 -0.434975,0.556768 l 0.626364,6.15925 a 0.50457132,0.50457132 0 0 0 0.504572,0.452374 v 0 a 0.48717231,0.48717231 0 0 0 0.434975,-0.556768 z m 3.775585,-0.452374 a 0.48717231,0.48717231 0 0 0 -0.487172,0.504571 v 6.15925 a 0.48717231,0.48717231 0 0 0 0.487172,0.504571 0.50457132,0.50457132 0 0 0 0.504571,-0.504571 v -6.15925 a 0.50457132,0.50457132 0 0 0 -0.504571,-0.504571 z m 11.43115,-4.476278 a 4.1931617,4.1931617 0 0 0 -0.556768,-2.087882 c 0,-0.278384 0,-0.574167 0,-0.852551 A 10.091426,10.091426 0 0 0 23.037984,6.9412459 3.0100289,3.0100289 0 0 0 23.229374,5.8973052 2.9404329,2.9404329 0 0 0 22.115837,3.5832368 3.6885903,3.6885903 0 0 1 24.969275,1.6693456 0.50457132,0.50457132 0 0 0 25.456447,1.1125773 0.52197033,0.52197033 0 0 0 24.847482,0.67760204 4.74993,4.74993 0 0 0 21.245886,3.1656605 2.7316447,2.7316447 0 0 0 20.236744,2.9916704 2.9926299,2.9926299 0 0 0 17.609493,4.5749804 10.126224,10.126224 0 0 0 15.991385,4.4531873 10.648195,10.648195 0 0 0 5.0996041,14.892594 q 0,0.52197 0,1.043941 a 3.3406101,3.3406101 0 0 0 -0.5219703,1.826896 3.4798022,3.4798022 0 0 0 2.3662655,3.218817 l 1.2005318,9.134481 a 1.9486892,1.9486892 0 0 0 2.0182849,1.548512 h 11.657338 a 1.9312902,1.9312902 0 0 0 2.018285,-1.548512 l 1.130936,-8.560314 a 4.1931617,4.1931617 0 0 0 2.45326,-3.792984 z M 20.236744,3.983414 a 2.3314675,2.3314675 0 0 1 0.608965,0.1739901 2.0008863,2.0008863 0 0 0 -0.104394,0.3653793 0.48717231,0.48717231 0 0 0 0.382778,0.5915663 h 0.104394 A 0.50457132,0.50457132 0 0 0 21.71566,4.7315715 v 0 A 1.9834873,1.9834873 0 1 1 20.236744,3.983414 Z M 15.991385,5.46233 a 10.926579,10.926579 0 0 1 1.304926,0 3.6711913,3.6711913 0 0 0 0,0.4349752 2.9926299,2.9926299 0 0 0 2.940433,3.062226 3.0274279,3.0274279 0 0 0 2.348866,-1.1309357 9.0996828,9.0996828 0 0 1 3.305812,6.7682155 4.1235656,4.1235656 0 0 0 -2.662048,-0.956946 3.7407874,3.7407874 0 0 0 -1.078739,0.139192 5.2197033,5.2197033 0 0 0 -4.036571,-2.035684 5.0283142,5.0283142 0 0 0 -3.479802,1.339724 3.8103834,3.8103834 0 0 0 -6.2462448,1.322325 2.0530833,2.0530833 0 0 0 -0.4523743,0 3.4798022,3.4798022 0 0 0 -1.8790932,0.556768 V 14.822998 A 9.6564511,9.6564511 0 0 1 15.991385,5.46233 Z m 6.85521,24.532605 a 0.97434462,0.97434462 0 0 1 -1.026541,0.678562 H 10.162716 A 0.97434462,0.97434462 0 0 1 9.1361747,29.994935 L 8.057436,21.138839 a 3.3580091,3.3580091 0 0 0 2.905635,-1.652906 3.9495755,3.9495755 0 0 0 2.749044,-0.208788 5.0979102,5.0979102 0 0 0 4.488944,2.679447 4.9761171,4.9761171 0 0 0 2.696847,-0.782955 4.1583636,4.1583636 0 0 0 2.418463,0.765556 4.5237429,4.5237429 0 0 0 0.69596,0 z m 0.382779,-9.047485 a 3.201418,3.201418 0 0 1 -2.070483,-0.765557 0.50457132,0.50457132 0 0 0 -0.626364,0 4.0887676,4.0887676 0 0 1 -6.228846,-1.739901 0.52197033,0.52197033 0 0 0 -0.313182,-0.365379 h -0.156591 a 0.57416736,0.57416736 0 0 0 -0.278385,0.087 2.8360388,2.8360388 0 0 1 -2.714245,0.243586 0.41757626,0.41757626 0 0 0 -0.382778,0 0.48717231,0.48717231 0 0 0 -0.278385,0.278384 2.4010635,2.4010635 0 1 1 -2.122679,-3.323211 2.0704823,2.0704823 0 0 1 0.6437634,0.104394 0.48717231,0.48717231 0 0 0 0.3827782,0 0.48717231,0.48717231 0 0 0 0.2435862,-0.313182 2.8360388,2.8360388 0 0 1 5.0109152,-0.991744 0.48717231,0.48717231 0 0 0 0.765556,0 4.1061666,4.1061666 0 0 1 6.437635,0.434976 0.50457132,0.50457132 0 0 0 0.591566,0.191389 2.9230338,2.9230338 0 0 1 1.096138,-0.191389 3.201418,3.201418 0 0 1 0,6.385437 z" />
</svg>