<?xml version="1.0" encoding="UTF-8" standalone="no"?>

<svg
   width="32px"
   height="32px"
   viewBox="0 0 32 32"
   xmlns="http://www.w3.org/2000/svg"
   xmlns:svg="http://www.w3.org/2000/svg">

   <path
      style="fill:none;stroke:#c6a87d;stroke-width:1px;stroke-linecap:round;stroke-miterlimit:10"
      d="m 14.815308,13.061841 c 0,0 -1.925125,0.699945 -2.341098,2.537438 m -1.354964,8.991681 h 9.758735 m -9.758735,-6.432057 h 9.758735 M 14.485303,3.9237375 H 17.56295 M 14.485302,11.182751 V 1.4983353 a 0.66555744,0.66555744 0 0 1 0.662785,-0.66555741 h 1.75208 a 0.66555744,0.66555744 0 0 1 0.665557,0.66555741 v 9.7060457 m -0.0028,-0.0055 a 4.9051583,4.9051583 0 0 1 1.885746,1.141431 4.6716586,4.6716586 0 0 1 1.432058,3.356628 V 30.677483 A 0.48918472,0.48918472 0 0 1 20.39157,31.167222 H 11.608985 A 0.48973935,0.48973935 0 0 1 11.119246,30.677483 V 15.696894 c 0,-2.107599 1.411536,-3.896839 3.366056,-4.516362" />
</svg>