<?xml version="1.0" encoding="UTF-8" standalone="no"?>

<svg
    width="32"
    height="32"
    viewBox="0 0 32 32"
    xmlns="http://www.w3.org/2000/svg"
    xmlns:svg="http://www.w3.org/2000/svg">

    <path
        stroke='#c6a87d' strokeWidth="1.7"
        d="m 9.9610491,5.8121477 v 0 A 0.48730343,0.48730343 0 0 0 10.448352,5.3074406 1.879599,1.879599 0 0 1 12.293144,3.3930343 0.48730343,0.48730343 0 0 0 12.74564,2.8535198 0.48730343,0.48730343 0 0 0 12.206126,2.4010237 2.8542058,2.8542058 0 0 0 9.5607641,5.3248443 0.48730343,0.48730343 0 0 0 9.9610491,5.8121477 Z m -0.626533,7.1007073 a 1.5141214,1.5141214 0 0 0 -1.5141214,1.514121 v 9.641647 a 1.4967177,1.4967177 0 0 0 1.4967177,1.479314 v 0 A 1.4967177,1.4967177 0 0 0 10.81383,24.068623 V 14.426976 A 1.5141214,1.5141214 0 0 0 9.3345161,12.912855 Z m 0.5047071,11.138364 a 0.48730343,0.48730343 0 0 1 -0.4873034,0.487303 v 0 A 0.50470713,0.50470713 0 0 1 8.8646163,24.051219 v -9.624243 a 0.48730343,0.48730343 0 0 1 0.5047072,-0.487303 0.46989974,0.46989974 0 0 1 0.4698997,0.487303 z M 18.262611,12.912855 a 1.5141214,1.5141214 0 0 0 -1.548929,1.514121 v 9.641647 a 1.4967177,1.4967177 0 0 0 1.496718,1.479314 h 0.05221 a 1.4967177,1.4967177 0 0 0 1.496718,-1.479314 V 14.426976 A 1.5141214,1.5141214 0 0 0 18.26261,12.912855 Z m 0.504707,11.138364 a 0.50470713,0.50470713 0 0 1 -0.487303,0.487303 h -0.0174 a 0.48730343,0.48730343 0 0 1 -0.487303,-0.487303 v -9.624243 a 0.48730343,0.48730343 0 0 1 0.487303,-0.504707 0.48730343,0.48730343 0 0 1 0.452496,0.504707 z m 8.893288,-5.46476 a 6.3001372,6.3001372 0 0 0 -5.79543,-6.26533 V 10.702586 A 3.0108391,3.0108391 0 0 0 23.20526,8.527124 2.9760317,2.9760317 0 0 0 22.456901,6.2124327 3.0108391,3.0108391 0 0 0 20.368458,5.2204222 3.9680422,3.9680422 0 0 0 17.166178,3.6192823 H 16.922527 A 4.7860158,4.7860158 0 0 0 7.6637615,4.9245594 3.4807388,3.4807388 0 0 0 4.7747482,6.8911768 3.8810238,3.8810238 0 0 0 4.9313815,10.737393 3.4807388,3.4807388 0 0 0 5.697144,11.624982 v 15.263039 a 2.2102691,2.2102691 0 0 0 2.1232507,2.210269 v 1.897003 A 0.50470713,0.50470713 0 0 0 8.3251018,31.5 H 19.219814 a 0.50470713,0.50470713 0 0 0 0.504707,-0.504707 V 29.09829 a 2.2102691,2.2102691 0 0 0 2.140655,-2.210269 v -2.018828 a 6.3001372,6.3001372 0 0 0 5.79543,-6.282734 z M 5.6797403,7.3262691 A 2.5235356,2.5235356 0 0 1 8.1336612,5.9165699 0.53951451,0.53951451 0 0 0 8.655772,5.3944591 V 5.2900369 a 3.7766016,3.7766016 0 0 1 7.431377,-0.9920105 0.52211082,0.52211082 0 0 0 0.574322,0.3654775 h 0.504707 a 2.9934354,2.9934354 0 0 1 2.523536,1.3922956 0.52211082,0.52211082 0 0 0 0.452496,0.226248 h 0.104422 a 1.93181,1.93181 0 0 1 1.461911,0.6439367 2.0188285,2.0188285 0 0 1 0.504707,1.5489287 1.9666174,1.9666174 0 0 1 -2.784591,1.5837361 0.48730343,0.48730343 0 0 0 -0.487304,0 2.9760317,2.9760317 0 0 1 -1.740369,0.574322 v 0 a 1.6359472,1.6359472 0 0 0 -1.096433,0.452496 1.5489288,1.5489288 0 0 0 -0.452496,1.096433 v 3.376316 a 0.53951451,0.53951451 0 0 1 -0.504707,0.60913 0.52211082,0.52211082 0 0 1 -0.365478,-0.191441 0.46989974,0.46989974 0 0 1 -0.156633,-0.365478 c 0,0 0,-2.558343 0,-4.420538 A 2.1406544,2.1406544 0 0 0 12.449777,9.0840422 v 0 A 2.0014248,2.0014248 0 0 0 10.709408,10.11086 2.8019947,2.8019947 0 0 1 5.8885847,10.215282 2.8890132,2.8890132 0 0 1 5.6797403,7.3262691 Z m 7.9360847,8.2841579 a 1.5489288,1.5489288 0 0 0 0.4699,1.096433 l 0.19144,0.13923 v 7.205129 a 0.50470713,0.50470713 0 0 1 -0.99201,0 v -9.624243 a 0.48730343,0.48730343 0 0 1 0.33067,-0.452496 z M 8.8472126,30.50799 v -1.4097 h 9.8678944 v 1.4097 z M 20.873165,26.888021 A 1.2182586,1.2182586 0 0 1 19.654907,28.10628 H 7.9074132 A 1.2182586,1.2182586 0 0 1 6.6891546,26.888021 v -14.65391 a 3.7766016,3.7766016 0 0 0 1.4619103,0.295863 3.8288127,3.8288127 0 0 0 3.3067021,-1.914407 1.0268179,1.0268179 0 0 1 0.887588,-0.539514 h 0.121826 a 1.1138364,1.1138364 0 0 1 1.113836,1.113836 c 0,0.556918 0,1.166048 0,1.74037 a 1.4967177,1.4967177 0 0 0 -1.305277,1.496717 v 9.641647 a 1.5141214,1.5141214 0 0 0 3.010839,0 V 17.107145 A 1.5141214,1.5141214 0 0 0 16.60926,15.57562 V 12.1819 a 0.53951451,0.53951451 0 0 1 0.156633,-0.382882 0.55691821,0.55691821 0 0 1 0.400285,-0.156633 v 0 a 4.0028496,4.0028496 0 0 0 2.123251,-0.609129 3.0456465,3.0456465 0 0 0 1.583736,0 v 0 z m 0.992011,-3.045646 V 13.400158 a 5.2211085,5.2211085 0 0 1 0,10.442217 z" />
</svg>