<?xml version="1.0" encoding="UTF-8" standalone="no"?>
<!-- Created with Inkscape (http://www.inkscape.org/) -->

<svg
   width="32px"
   height="32px"
   viewBox="0 0 32 32"
   xmlns="http://www.w3.org/2000/svg"
   xmlns:svg="http://www.w3.org/2000/svg">

   <path
      style="fill:none;stroke:#c6a87d;stroke-width:1px;stroke-linecap:round;stroke-miterlimit:10"
      d="m 18.901671,1.1378722 c 0,0 -1.420845,0.7650153 0,2.7863796 1.420845,2.0213643 -0.874201,3.1124988 -0.874201,3.1124988 M 13.206078,1.1378722 c 0,0 -1.420126,0.7650153 0,2.7863796 1.420127,2.0213643 -0.872763,3.1124988 -0.872763,3.1124988 m 3.618199,-6.10575572 c 0,0 -1.420846,0.76501532 0,2.78637962 1.420845,2.0213643 -0.874201,3.1139354 -0.874201,3.1139354 m -7.7499996,9.0199971 0.1860457,0.855524 m 0.4719391,1.383492 c 0,0 0.014367,0.09482 0.059621,0.268654 0.2011308,0.768607 1.0106821,3.08161 3.8789508,5.57635 M 27.683904,11.410626 A 11.877491,2.2885809 0 0 1 15.806413,13.699207 11.877491,2.2885809 0 0 1 3.9289217,11.410626 11.877491,2.2885809 0 0 1 15.806413,9.1220455 11.877491,2.2885809 0 0 1 27.683904,11.410626 Z m -23.7549826,10e-7 c 0,8.884233 5.3155991,16.090462 11.8774906,16.090462 6.561892,0 11.876772,-7.203355 11.876772,-16.090462 M 4.5703851,28.240963 H 27.79165 c 0.154803,0 0.279428,0.124625 0.279428,0.279428 v 2.269186 c 0,0.154803 -0.124625,0.279428 -0.279428,0.279428 H 4.5703851 c -0.1548032,0 -0.2794281,-0.124625 -0.2794281,-0.279428 v -2.269186 c 0,-0.154803 0.1246249,-0.279428 0.2794281,-0.279428 z"
   />
</svg>